<?xml version="1.0" standalone="no"?>
<!DOCTYPE svg PUBLIC "-//W3C//DTD SVG 20010904//EN"
 "http://www.w3.org/TR/2001/REC-SVG-20010904/DTD/svg10.dtd">
<svg version="1.0" xmlns="http://www.w3.org/2000/svg"
 width="287.000000pt" height="287.000000pt" viewBox="0 0 287.000000 287.000000"
 preserveAspectRatio="xMidYMid meet">
<metadata>
Created by potrace 1.14, written by Peter Selinger 2001-2017
</metadata>
<g transform="translate(0.000000,287.000000) scale(0.100000,-0.100000)"
fill="#000000" stroke="none">
<path d="M1414 2804 c-50 -51 -76 -115 -80 -198 l-3 -69 -78 -27 c-88 -30
-188 -80 -248 -122 -57 -41 -184 -168 -201 -200 -8 -16 -18 -28 -22 -28 -5 0
-16 -15 -25 -32 -10 -18 -25 -46 -35 -63 -10 -16 -22 -42 -25 -57 -4 -15 -22
-35 -41 -47 -19 -12 -45 -36 -58 -54 -50 -66 -98 -196 -98 -264 0 -19 -21 -73
-49 -129 -27 -52 -52 -112 -56 -133 -8 -46 8 -91 33 -91 10 0 30 -12 44 -27
23 -25 26 -40 34 -143 12 -165 9 -422 -7 -510 l-14 -75 -130 4 c-159 4 -172
-3 -140 -81 6 -14 2 -18 -18 -18 -18 0 -38 -17 -78 -68 -30 -38 -63 -73 -73
-78 -36 -17 -43 -41 -18 -67 12 -13 22 -29 22 -35 0 -7 4 -12 9 -12 5 0 16
-12 24 -27 25 -50 69 -128 80 -140 14 -19 84 -17 84 2 0 8 -7 17 -16 20 -14 6
-14 8 1 19 15 11 16 17 5 39 -6 15 -15 27 -19 27 -12 0 -10 -28 2 -35 12 -8
13 -25 2 -25 -5 0 -16 17 -25 38 -9 20 -23 47 -32 58 -15 20 -14 23 2 39 16
17 16 17 -5 11 -18 -6 -21 -4 -15 10 5 14 3 16 -11 11 -12 -5 -16 -3 -14 5 3
7 15 13 29 15 62 6 100 12 109 18 11 7 29 -25 23 -42 -2 -7 -11 -9 -19 -6 -7
3 -11 9 -8 14 3 5 0 9 -6 9 -7 0 -9 -7 -6 -15 3 -9 -1 -18 -9 -21 -8 -4 -15
-11 -15 -17 0 -5 9 -2 20 8 11 10 23 15 27 11 4 -4 1 -12 -7 -17 -13 -9 -13
-10 0 -6 8 2 27 -4 41 -14 20 -14 25 -25 22 -43 -3 -14 2 -35 11 -48 9 -12 16
-18 16 -12 0 6 -3 14 -7 18 -5 4 -8 25 -9 46 -1 31 2 37 15 33 13 -4 13 -3 2
5 -8 6 -10 15 -6 23 5 8 -1 6 -12 -4 -23 -20 -39 -11 -20 12 11 14 10 14 -6 2
-9 -8 -21 -11 -24 -7 -4 4 -3 10 3 14 6 4 10 20 10 35 l-2 28 19 -23 19 -23
-5 23 c-4 18 -2 22 11 20 10 -2 17 -13 17 -25 0 -12 3 -25 7 -28 3 -4 5 7 4
24 -2 35 7 40 24 14 11 -17 11 -17 6 -1 -3 11 0 18 9 19 8 1 21 2 28 3 6 1 17
-2 23 -6 7 -5 18 -7 25 -6 9 2 13 -6 12 -22 -1 -25 -1 -25 10 3 6 15 16 27 21
27 19 0 39 -17 33 -27 -3 -5 0 -10 7 -10 8 0 12 7 8 15 -4 11 -1 13 8 7 7 -4
24 -10 37 -12 53 -7 69 -11 94 -21 15 -6 30 -8 33 -5 3 4 6 1 6 -6 0 -8 -7
-11 -17 -6 -15 5 -16 4 -6 -6 10 -10 16 -10 25 -1 21 21 29 13 11 -12 -12 -16
-20 -20 -25 -12 -5 7 -8 5 -8 -6 0 -12 -5 -16 -17 -12 -15 5 -15 4 -4 -4 17
-12 51 2 51 21 0 8 3 7 9 -2 7 -10 4 -19 -7 -28 -16 -12 -15 -12 2 -6 14 5 17
3 11 -6 -6 -10 -3 -11 12 -3 10 6 25 7 32 3 11 -7 11 -9 0 -13 -11 -4 -12 -8
-2 -20 7 -8 9 -19 5 -23 -4 -5 -2 -5 5 -2 6 4 9 17 6 28 -5 19 -4 20 17 9 16
-8 20 -9 15 -1 -4 7 -1 20 6 29 13 16 12 16 -6 0 -17 -14 -23 -15 -39 -3 -18
13 -18 15 -2 21 14 5 15 9 4 15 -7 5 -17 9 -23 9 -5 0 -4 -4 4 -9 9 -6 10 -11
2 -15 -14 -9 -33 2 -26 15 4 5 0 9 -7 9 -10 0 -10 2 1 9 22 14 73 -10 67 -32
-4 -17 -3 -17 12 -5 18 15 52 13 52 -3 0 -6 5 -7 10 -4 6 3 10 -1 10 -10 0
-10 -5 -13 -12 -9 -9 5 -9 2 1 -9 14 -18 22 -22 20 -10 -5 29 2 36 17 17 8
-10 13 -13 9 -7 -3 7 -1 13 4 13 6 0 11 -5 11 -11 0 -5 4 -7 10 -4 5 3 10 2
10 -4 0 -6 6 -8 14 -5 16 6 44 -35 53 -76 l6 -30 89 0 c65 0 93 4 104 15 8 8
21 12 28 9 17 -6 31 12 16 21 -5 3 -10 1 -10 -6 0 -7 -3 -9 -6 -6 -4 3 -15 2
-25 -4 -27 -14 -25 6 2 25 12 8 27 12 33 10 7 -3 21 4 31 16 21 23 11 27 -12
5 -8 -9 -18 -13 -21 -10 -4 3 0 10 8 15 10 7 11 10 2 10 -6 0 -22 -11 -34 -25
-11 -13 -26 -22 -31 -18 -6 3 -2 12 9 21 18 13 18 14 -4 7 -21 -6 -23 -5 -13
13 13 24 35 34 58 25 9 -4 14 -2 10 3 -3 6 16 22 43 36 27 15 52 23 55 19 2
-5 16 -8 30 -8 13 0 22 4 19 9 -3 4 -12 7 -19 6 -8 -2 -14 2 -14 7 -1 6 2 10
7 10 4 1 18 7 31 14 17 10 21 10 16 1 -5 -8 -3 -11 6 -8 8 3 13 11 11 17 -1 7
2 10 8 6 5 -3 10 -1 10 6 0 7 3 9 6 6 4 -4 2 -13 -4 -20 -7 -8 -9 -17 -5 -20
9 -9 23 -9 22 1 -4 24 2 52 11 47 6 -3 10 0 10 7 0 9 3 9 10 -2 7 -11 10 -11
10 -2 0 7 5 10 10 7 6 -3 10 -2 10 4 0 11 47 27 68 23 6 -2 12 3 12 9 0 7 3 9
6 6 4 -4 1 -13 -6 -22 -15 -18 0 -20 19 -3 9 9 12 9 7 1 -3 -6 0 -14 6 -17 9
-4 8 -5 -2 -5 -36 3 -41 0 -28 -15 9 -9 15 -10 20 -3 4 7 12 6 25 -4 16 -12
17 -12 7 1 -5 8 -10 22 -9 30 0 8 -6 20 -14 26 -10 8 -11 13 -3 18 7 4 12 5
12 1 0 -3 9 -1 19 4 15 8 20 7 25 -5 3 -9 3 -21 -1 -27 -11 -18 -12 -36 -3
-42 5 -3 7 3 5 14 -2 13 6 28 23 42 15 12 19 19 10 16 -10 -3 -20 -2 -23 3 -6
10 -3 11 33 14 9 1 23 5 31 10 10 6 12 4 7 -12 -4 -12 -2 -23 5 -28 7 -4 10
-3 6 2 -3 5 2 18 10 29 15 19 15 19 8 -5 -7 -22 -6 -23 8 -11 9 7 14 18 10 24
-4 6 -1 7 7 2 7 -4 16 -2 21 6 7 12 9 11 9 -2 0 -8 -6 -21 -12 -29 -7 -8 -3
-6 9 4 13 10 20 23 16 29 -3 5 -1 7 5 4 16 -11 3 -43 -23 -55 -17 -8 -25 -8
-28 1 -2 8 -5 8 -11 -1 -4 -7 -2 -12 4 -12 7 0 8 -6 0 -19 -7 -13 -7 -22 0
-26 5 -3 10 3 10 14 0 28 21 37 36 16 8 -10 17 -15 21 -11 5 4 0 13 -10 21
-15 11 -16 13 -2 19 9 3 15 0 15 -9 0 -7 7 -21 16 -29 8 -9 11 -16 5 -16 -5 0
-9 -9 -8 -20 2 -26 6 -25 16 3 6 15 5 29 -5 44 -8 13 -12 23 -8 23 4 0 1 6 -5
14 -8 10 -9 16 -1 21 6 3 7 11 4 17 -4 7 -2 8 5 4 9 -6 9 -11 1 -21 -15 -18 5
-29 27 -15 17 11 17 11 -1 6 -15 -5 -17 -4 -8 7 7 8 10 16 7 18 -2 3 4 5 14 5
12 0 17 -6 14 -16 -3 -10 1 -8 12 5 17 20 17 20 12 -2 -3 -13 0 -26 5 -30 6
-3 8 -1 5 4 -4 6 4 11 18 11 14 0 22 -5 19 -9 -3 -5 0 -8 8 -7 7 2 12 -3 10
-10 -2 -14 14 -16 23 -2 7 11 -41 44 -54 36 -5 -3 -11 0 -14 8 -6 14 16 16 29
3 11 -11 26 -8 19 3 -3 6 -4 10 0 10 7 0 27 -49 30 -73 1 -9 -3 -17 -9 -17 -6
0 -5 -4 3 -9 8 -5 11 -16 8 -24 -4 -11 -1 -14 8 -11 8 3 11 13 8 21 -5 12 -1
14 18 9 21 -6 21 -5 -4 9 -21 12 -26 20 -18 29 7 9 7 16 -1 24 -17 17 -18 40
-1 38 21 -3 44 -51 30 -65 -8 -8 -8 -11 0 -11 15 0 25 28 13 35 -6 4 -10 16
-9 28 0 15 2 17 6 7 3 -8 12 -22 20 -32 10 -11 11 -18 4 -23 -6 -3 -11 -17
-11 -31 0 -15 4 -23 11 -19 6 4 8 9 5 12 -2 3 -1 15 4 28 6 17 5 27 -6 35 -17
15 -18 27 -1 27 7 0 20 -11 30 -23 15 -20 15 -24 2 -38 -8 -8 -15 -18 -15 -23
1 -4 9 3 20 15 16 19 18 28 9 45 -9 18 -9 20 2 10 16 -15 33 -17 24 -3 -8 12
5 13 24 1 9 -6 12 -19 8 -37 -5 -27 -4 -27 9 -9 8 11 12 25 10 32 -3 7 -1 13
4 13 6 0 10 -7 10 -15 0 -8 4 -15 8 -15 14 0 43 -92 33 -104 -10 -11 0 -39 13
-37 3 1 5 -1 4 -2 -2 -2 2 -10 9 -18 6 -8 14 -32 18 -54 4 -22 11 -44 15 -50
5 -5 8 -14 7 -20 -1 -6 58 -11 156 -13 160 -3 167 -1 148 36 -16 32 -42 124
-37 129 3 3 18 -4 34 -16 17 -12 37 -21 45 -21 65 0 63 46 -8 235 -39 104 -48
170 -47 368 0 175 9 310 32 470 33 230 -21 470 -129 574 -22 21 -51 48 -65 61
-14 12 -28 35 -32 50 -5 26 -25 75 -67 172 -45 102 -181 254 -299 333 -166
112 -334 160 -588 169 -64 2 -87 7 -92 18 -4 8 -7 70 -7 138 l-1 122 -30 0
c-20 0 -40 -11 -66 -36z m42 -112 c2 -90 28 -168 75 -224 37 -45 60 -51 29 -7
-12 16 -19 33 -16 37 4 3 64 1 134 -6 265 -24 435 -95 606 -252 95 -88 188
-246 198 -336 2 -22 -2 -29 -17 -32 -34 -6 -104 -82 -111 -121 -7 -33 -8 -31
-29 41 -20 70 -51 135 -61 126 -2 -2 5 -27 16 -55 35 -94 51 -271 36 -413 -3
-25 -7 -68 -9 -96 -3 -29 -8 -58 -12 -64 -6 -9 -4 -11 6 -5 11 7 12 6 3 -6 -6
-8 -14 -42 -18 -77 -8 -75 -40 -203 -60 -243 -8 -16 -10 -26 -4 -23 5 4 2 -5
-7 -19 -10 -16 -14 -35 -10 -49 5 -18 4 -20 -4 -8 -9 12 -11 13 -11 1 0 -22
-121 -232 -137 -238 -22 -8 -22 -2 -8 62 8 33 16 74 18 90 4 26 42 211 52 255
2 8 6 31 10 50 l6 35 -15 -40 c-9 -22 -16 -46 -16 -53 0 -7 -7 -20 -15 -28 -8
-9 -15 -24 -15 -35 0 -10 -4 -19 -9 -19 -5 0 -11 -10 -14 -22 -12 -45 -15 -11
-6 68 13 120 17 338 8 434 -24 234 -43 373 -64 455 -25 99 -52 171 -61 162 -3
-3 -1 -14 5 -26 35 -64 76 -351 48 -334 -7 4 -6 0 2 -10 8 -10 9 -17 3 -17 -6
0 -12 -10 -14 -22 -3 -20 -14 -13 -86 59 -45 45 -82 90 -82 98 0 10 -5 13 -12
9 -7 -4 -10 -4 -6 0 4 5 -2 23 -13 42 -10 19 -19 41 -19 50 0 9 -5 12 -12 8
-7 -4 -8 -3 -4 5 4 7 4 20 0 29 -4 9 -8 22 -9 27 0 6 -7 9 -14 7 -7 -1 -10 2
-6 8 3 6 11 8 16 5 5 -4 7 4 5 17 -2 13 0 28 4 33 4 6 10 24 14 40 l6 30 -35
-40 c-43 -49 -105 -175 -134 -270 -21 -71 -36 -181 -49 -360 l-7 -100 -49 75
c-53 81 -88 152 -120 244 -12 32 -25 58 -31 57 -13 -2 -9 -100 6 -164 6 -26 9
-50 7 -52 -10 -10 -99 156 -123 227 -45 137 -52 293 -17 431 11 42 16 77 12
77 -12 0 -41 -86 -55 -165 -10 -60 -25 -96 -75 -182 -63 -109 -158 -243 -171
-243 -4 0 -6 11 -3 24 2 14 0 28 -6 31 -5 3 -10 12 -10 18 0 7 4 6 10 -3 7
-11 8 -5 4 18 -4 20 0 59 11 97 22 83 15 104 -13 34 -55 -140 -98 -409 -87
-554 9 -113 41 -274 77 -383 16 -51 28 -96 25 -98 -7 -7 -84 90 -92 116 -4 11
-12 20 -19 20 -7 0 -13 6 -14 13 0 6 -3 22 -6 35 -3 12 -8 32 -11 43 -2 12 -7
24 -10 27 -5 5 1 -41 10 -88 2 -8 4 -25 4 -38 1 -13 5 -21 10 -18 5 3 11 -1
15 -9 3 -8 0 -14 -7 -12 -8 1 -11 -9 -8 -28 4 -38 10 -47 24 -38 8 5 8 2 0 -9
-7 -8 -11 -17 -9 -19 2 -2 6 -19 9 -36 10 -54 -11 -38 -43 32 -86 187 -126
535 -99 850 21 234 98 419 234 564 118 124 242 199 394 237 l96 23 25 -22 c54
-49 63 -50 27 -2 -55 72 -70 112 -63 162 6 46 55 153 70 153 0 0 2 -35 2 -78z
m238 -824 c24 -67 50 -109 124 -194 l60 -70 -65 4 c-64 4 -173 -12 -173 -26 0
-4 53 -7 118 -8 134 0 188 -12 231 -53 27 -25 31 -36 31 -80 0 -28 -2 -51 -5
-51 -3 0 -33 12 -67 26 -87 36 -178 38 -235 4 -40 -24 -103 -93 -103 -113 0
-5 11 -2 25 7 13 9 26 16 27 16 2 0 2 -34 0 -75 -3 -61 0 -82 17 -117 27 -55
63 -81 112 -81 79 0 129 43 143 123 6 35 -4 119 -19 154 -7 16 -5 17 12 8 47
-25 85 -71 82 -99 -2 -16 0 -33 3 -38 4 -6 2 -60 -3 -120 -9 -115 -13 -147
-30 -232 l-10 -52 -97 -49 c-205 -105 -401 -144 -534 -107 -126 35 -284 132
-340 208 -59 82 -78 135 -114 314 -19 96 -33 177 -31 179 2 2 11 -18 20 -44
10 -26 26 -58 37 -72 l20 -25 0 28 c0 35 15 63 38 76 16 9 18 4 14 -52 -3 -46
2 -77 18 -119 24 -65 50 -88 98 -88 84 0 126 61 120 178 -3 66 -1 71 15 66 44
-14 -36 87 -92 116 -39 20 -116 13 -173 -15 -58 -29 -75 -31 -100 -8 -12 11
-18 30 -18 63 l0 46 53 22 c76 31 153 45 219 39 67 -6 76 4 19 21 -61 19 -85
16 -231 -23 -21 -6 -17 1 22 37 55 52 115 131 158 213 18 33 36 64 40 68 4 5
13 -22 19 -60 30 -174 112 -342 203 -414 60 -47 72 -49 63 -9 -4 17 -4 30 -2
30 3 0 23 -30 45 -67 41 -70 87 -121 98 -110 4 3 10 76 15 160 8 158 10 174
35 312 17 89 52 205 62 205 4 0 16 -23 26 -52z m-1049 -59 c-9 -30 -27 -67
-41 -84 l-25 -30 7 30 c9 38 64 149 70 142 3 -3 -2 -29 -11 -58z m1966 -76
c69 -75 109 -179 116 -301 6 -92 -2 -193 -34 -482 -10 -80 -17 -177 -17 -217
0 -39 -4 -69 -7 -67 -4 2 -10 0 -14 -5 -10 -18 -36 0 -30 20 4 12 2 19 -7 19
-10 0 -9 3 2 10 8 5 10 10 4 10 -6 0 -11 12 -11 28 -2 66 -8 102 -17 99 -5 -2
-10 -52 -11 -115 -1 -62 -5 -111 -9 -110 -4 2 -12 -5 -18 -16 -8 -14 -7 -21 3
-27 8 -5 10 -9 5 -9 -5 0 -3 -6 3 -14 9 -11 9 -16 0 -22 -7 -4 -9 -3 -6 3 4 6
-4 22 -18 37 -16 17 -19 26 -10 26 8 0 13 9 12 20 -1 11 -7 20 -14 20 -9 0
-11 8 -7 24 3 13 1 27 -4 30 -6 3 -8 -2 -6 -11 4 -15 -2 -18 -33 -19 -21 -1
-33 0 -26 3 9 3 9 12 3 29 -8 19 -7 23 3 18 9 -6 9 -5 0 7 -12 15 -13 18 -13
54 0 28 -15 35 -16 8 -2 -49 -17 -118 -27 -125 -9 -6 -9 -8 0 -8 19 0 3 -31
-21 -40 -16 -7 -17 -9 -4 -9 13 -1 16 -8 12 -33 -3 -18 -8 -59 -11 -91 -4 -37
-11 -61 -20 -64 -18 -7 -27 2 -18 17 6 9 10 9 16 -1 7 -11 9 -10 9 5 0 13 -5
17 -20 13 -15 -4 -20 0 -20 14 0 17 11 24 34 20 5 -1 6 5 3 13 -3 8 -1 17 6
20 7 2 4 5 -5 5 -10 1 -18 -6 -18 -14 0 -8 -3 -15 -7 -15 -25 0 4 566 29 582
15 9 55 12 120 9 63 -4 67 10 34 103 -14 41 -26 79 -26 85 0 6 13 11 29 11 48
0 56 20 41 103 -7 40 -23 109 -36 153 -13 45 -31 114 -40 153 -15 68 -15 74 1
91 17 19 18 19 54 1 20 -11 48 -32 62 -48z m-1730 -126 c-10 -9 -11 -8 -5 6 3
10 9 15 12 12 3 -3 0 -11 -7 -18z m-260 -350 c14 -167 41 -296 89 -426 l42
-113 -26 -27 c-29 -30 -46 -71 -46 -110 0 -15 -6 -35 -13 -45 -12 -16 -13 -16
-14 3 -1 12 3 21 8 21 6 0 9 10 7 22 -2 13 -8 22 -13 21 -6 -1 -11 8 -11 20
-1 12 -4 31 -7 42 -3 11 -6 27 -6 35 -1 8 -6 22 -11 30 -16 24 -28 -4 -23 -51
3 -26 0 -44 -10 -53 -21 -21 -26 -11 -16 32 12 50 11 318 -2 477 -9 123 -9
132 10 170 12 21 21 48 21 59 0 11 2 17 5 14 3 -3 10 -57 16 -121z m1225 59
c13 -10 23 -11 31 -4 9 8 15 4 22 -13 15 -42 5 -47 -95 -48 l-94 -2 0 29 c0
20 7 32 23 40 32 15 90 14 113 -2z m-721 -6 c4 -6 15 -8 24 -5 12 4 21 -2 28
-18 11 -24 1 -58 -13 -44 -4 4 -12 3 -18 -2 -6 -4 -34 -11 -61 -15 -43 -5 -52
-3 -62 13 -10 16 -9 24 8 45 24 30 82 46 94 26z m738 -101 c62 -32 66 -61 15
-104 -32 -27 -86 -33 -132 -15 -52 19 -89 122 -48 133 28 8 142 -2 165 -14z
m-673 -9 c15 -8 16 -16 10 -42 -13 -54 -20 -66 -51 -78 -58 -24 -125 9 -145
72 -6 21 8 36 51 50 32 10 115 9 135 -2z m-362 -405 c-3 -3 -9 2 -12 12 -6 14
-5 15 5 6 7 -7 10 -15 7 -18z m69 -103 c7 -4 19 -36 27 -70 l14 -62 -42 0
c-38 0 -99 -14 -148 -35 -16 -6 -18 -1 -18 41 0 27 6 60 13 74 22 44 116 76
154 52z m1615 -49 c10 -9 18 -21 18 -26 0 -6 -3 -7 -7 -4 -3 4 -12 2 -20 -5
-7 -6 -16 -8 -20 -4 -3 3 -1 6 5 6 15 0 16 26 2 35 -6 4 -7 -1 -4 -12 5 -15 4
-15 -4 -3 -10 14 -7 30 5 30 4 0 15 -7 25 -17z m165 -15 c1 -10 -2 -18 -8 -18
-5 0 -9 6 -9 13 0 8 -4 7 -10 -3 -7 -11 -10 -11 -10 -2 0 7 -5 10 -12 6 -7 -4
-8 -3 -4 5 4 6 12 9 17 6 5 -4 9 -2 9 3 0 17 26 8 27 -10z m-987 -36 l0 -37
-111 -49 c-61 -27 -125 -60 -141 -74 -16 -13 -31 -22 -35 -19 -8 9 7 96 18
102 5 4 9 -3 9 -14 0 -12 5 -21 10 -21 6 0 10 22 10 49 l0 50 48 6 c37 5 179
38 190 44 1 0 2 -16 2 -37z m-1095 -1 c-6 -20 -35 -19 -35 1 0 6 7 8 15 4 10
-3 15 1 15 11 0 9 3 14 6 10 3 -3 3 -15 -1 -26z m1998 -6 c-3 -9 -8 -14 -10
-11 -3 3 -2 9 2 15 9 16 15 13 8 -4z m-2011 -33 c-7 -2 -10 -8 -6 -13 3 -5 -2
-9 -12 -9 -13 0 -14 3 -5 13 6 8 8 17 4 21 -4 4 1 4 12 0 11 -5 14 -9 7 -12z
m1626 2 c41 -8 52 -44 14 -45 -26 -1 -26 -1 6 -11 26 -9 34 -19 43 -50 6 -22
9 -42 7 -43 -2 -2 -60 0 -128 5 -69 5 -154 7 -190 4 -230 -14 -468 -97 -669
-233 -61 -41 -78 -48 -94 -39 -18 9 -16 13 29 60 119 122 251 212 404 275 73
30 190 67 240 76 40 7 304 8 338 1z m346 -29 l17 -30 -20 24 c-12 13 -21 28
-21 34 0 12 0 11 24 -28z m-1169 8 c-5 -10 -10 -48 -13 -85 -4 -66 -4 -66 -59
-114 -62 -53 -71 -52 -110 6 -41 60 -33 82 53 140 103 69 143 85 129 53z
m-697 -27 c-1 -14 -5 -23 -9 -20 -7 4 0 44 7 44 2 0 3 -11 2 -24z m300 0 c20
-10 32 -24 32 -36 0 -24 2 -24 -51 0 -53 23 -116 25 -166 5 -45 -19 -63 -19
-63 0 0 49 172 70 248 31z m1607 15 c3 -5 2 -12 -3 -15 -5 -3 -9 1 -9 9 0 17
3 19 12 6z m-2021 -56 c70 -11 110 -24 180 -59 50 -25 105 -57 121 -71 28 -24
24 -23 -40 9 -94 46 -162 65 -259 72 -45 3 -90 8 -101 9 -11 2 -64 4 -117 4
-96 1 -98 2 -98 24 0 13 3 27 7 31 10 10 190 -2 307 -19z m391 -24 c22 -10 45
-24 51 -32 7 -8 16 -51 21 -96 l9 -81 -68 58 c-37 32 -94 75 -128 96 -33 20
-60 40 -60 44 0 11 60 28 100 29 19 0 53 -8 75 -18z m-325 -62 c73 -14 171
-44 212 -65 18 -9 67 -40 108 -69 109 -77 174 -151 84 -96 -59 36 -290 128
-379 152 -78 21 -113 24 -265 24 -103 0 -190 -5 -212 -12 -48 -15 -50 0 -5 44
31 31 36 32 122 35 130 4 272 -1 335 -13z m524 -33 c10 -16 12 -27 6 -31 -16
-10 -40 -74 -40 -106 0 -31 -18 -49 -30 -29 -4 7 -10 42 -14 78 -7 63 -6 66
21 88 35 29 37 29 57 0z m50 -84 c2 -4 -9 -22 -26 -41 l-30 -34 7 34 c4 19 9
37 12 42 6 9 30 9 37 -1z m-24 -147 c11 -13 8 -15 -18 -15 -43 0 -68 10 -50
21 21 14 54 10 68 -6z"/>
<path d="M1349 919 c-35 -37 -37 -69 -6 -104 27 -32 74 -43 140 -35 82 11 91
59 23 126 -37 38 -49 44 -86 44 -34 0 -47 -6 -71 -31z m147 -30 c58 -56 38
-89 -51 -89 -94 0 -130 45 -83 105 18 24 26 27 61 22 26 -4 51 -16 73 -38z"/>
<path d="M2470 692 c0 -5 7 -9 15 -9 8 0 15 4 15 9 0 4 -7 8 -15 8 -8 0 -15
-4 -15 -8z"/>
<path d="M2552 695 c4 -4 3 -14 -3 -22 -8 -9 -8 -17 0 -26 6 -8 7 -18 3 -22
-4 -5 -1 -5 6 -1 15 9 16 36 1 36 -8 0 -8 4 0 14 9 11 9 16 -1 22 -7 4 -10 4
-6 -1z"/>
<path d="M2356 577 c3 -10 9 -15 12 -12 3 3 0 11 -7 18 -10 9 -11 8 -5 -6z"/>
<path d="M2370 550 c-8 -5 -12 -12 -9 -15 4 -3 12 1 19 10 14 17 11 19 -10 5z"/>
<path d="M2348 463 c7 -3 16 -2 19 1 4 3 -2 6 -13 5 -11 0 -14 -3 -6 -6z"/>
<path d="M581 654 c0 -11 3 -14 6 -6 3 7 2 16 -1 19 -3 4 -6 -2 -5 -13z"/>
<path d="M663 635 c0 -8 4 -12 9 -9 5 3 6 10 3 15 -9 13 -12 11 -12 -6z"/>
<path d="M2024 308 c3 -19 25 -55 26 -41 0 6 -5 15 -10 18 -6 4 -8 10 -5 15 3
5 1 11 -4 14 -5 4 -8 0 -7 -6z"/>
<path d="M1730 299 c0 -5 5 -7 10 -4 6 3 10 8 10 11 0 2 -4 4 -10 4 -5 0 -10
-5 -10 -11z"/>
<path d="M1819 288 c-10 -32 2 -61 15 -39 4 5 2 12 -4 16 -6 4 -8 11 -5 16 4
5 4 9 1 9 -3 0 -6 -1 -7 -2z"/>
<path d="M2008 274 c5 -9 8 -26 5 -38 -3 -20 -3 -20 6 -1 8 18 -2 55 -15 55
-3 0 -1 -7 4 -16z"/>
<path d="M2078 276 c5 -10 8 -28 6 -40 -3 -12 -2 -15 2 -6 4 8 12 22 18 30 5
8 6 12 2 8 -5 -4 -15 0 -23 10 -13 16 -14 16 -5 -2z"/>
<path d="M2289 278 c-1 -7 -1 -17 0 -22 1 -5 -5 -6 -14 -2 -9 3 -14 2 -11 -3
3 -4 -4 -17 -16 -27 -21 -19 -21 -19 -14 1 5 14 4 17 -4 9 -6 -6 -8 -18 -5
-26 5 -13 12 -11 37 14 16 16 33 27 36 23 4 -3 1 -9 -5 -13 -8 -5 -7 -11 3
-19 8 -8 15 -9 19 -3 3 6 1 10 -6 10 -9 0 -9 3 0 14 9 10 8 15 -4 19 -8 4 -12
13 -9 22 3 8 3 15 0 15 -3 0 -7 -6 -7 -12z"/>
<path d="M428 248 c6 -23 8 -23 14 0 3 11 0 19 -7 19 -7 0 -10 -8 -7 -19z"/>
<path d="M1940 250 c-11 -7 -12 -12 -4 -20 8 -8 13 -6 17 9 3 12 4 21 4 21 -1
0 -9 -5 -17 -10z"/>
<path d="M210 234 c0 -8 5 -12 10 -9 6 4 8 11 5 16 -9 14 -15 11 -15 -7z"/>
<path d="M1600 241 c0 -4 -10 -7 -23 -6 -15 2 -24 -2 -24 -11 0 -10 4 -11 11
-4 13 13 29 13 21 -1 -4 -6 2 -5 14 3 22 14 28 28 11 28 -5 0 -10 -4 -10 -9z"/>
<path d="M1630 246 c0 -2 7 -7 16 -10 8 -3 12 -2 9 4 -6 10 -25 14 -25 6z"/>
<path d="M2369 233 c-13 -16 -12 -17 4 -4 16 13 21 21 13 21 -2 0 -10 -8 -17
-17z"/>
<path d="M1845 230 c-4 -6 -10 -8 -15 -5 -5 3 -11 1 -14 -4 -7 -10 20 -9 30 2
4 3 15 2 26 -4 11 -6 22 -8 25 -5 4 3 12 1 20 -5 9 -9 13 -8 13 0 0 6 -5 11
-11 11 -5 0 -7 5 -3 11 5 8 2 9 -12 1 -12 -6 -25 -7 -36 -1 -10 6 -19 5 -23
-1z"/>
<path d="M2180 236 c0 -2 7 -7 16 -10 8 -3 12 -2 9 4 -6 10 -25 14 -25 6z"/>
<path d="M586 213 c-5 -12 -4 -13 7 -5 8 7 16 9 19 6 3 -3 8 -1 11 3 3 5 -3 9
-13 10 -10 1 -21 -5 -24 -14z"/>
<path d="M1686 215 c-11 -8 -14 -15 -7 -15 7 0 10 -4 6 -9 -3 -5 -1 -12 4 -15
5 -4 8 2 6 11 -1 10 2 24 8 31 13 16 7 15 -17 -3z"/>
<path d="M1756 221 c-4 -5 -3 -17 1 -27 4 -10 2 -15 -3 -11 -6 3 -11 -4 -11
-16 -2 -20 -1 -20 8 -4 6 9 15 15 21 11 6 -4 6 2 -1 15 -7 12 -9 26 -6 31 3 6
4 10 1 10 -3 0 -7 -4 -10 -9z"/>
<path d="M2330 220 c0 -5 5 -10 11 -10 5 0 7 5 4 10 -3 6 -8 10 -11 10 -2 0
-4 -4 -4 -10z"/>
<path d="M527 213 c-8 -7 11 -33 24 -33 5 0 9 5 9 10 0 6 -6 9 -12 8 -7 -2
-12 3 -10 10 2 13 -1 15 -11 5z"/>
<path d="M639 204 c-6 -8 -16 -11 -23 -7 -6 4 -5 -1 3 -10 14 -18 26 -23 16
-8 -3 5 -1 12 4 15 5 4 12 -4 14 -16 4 -20 4 -20 6 4 1 19 5 26 15 22 8 -3 17
-1 20 4 9 15 -42 11 -55 -4z"/>
<path d="M1984 205 c-4 -8 -10 -12 -15 -9 -15 9 -10 -6 7 -23 12 -13 15 -13
14 -2 -4 28 0 40 12 33 7 -4 8 -3 4 4 -10 16 -15 15 -22 -3z"/>
<path d="M2090 209 c-12 -8 -12 -9 4 -7 12 2 20 -4 22 -15 1 -11 6 -22 10 -25
4 -4 4 1 1 11 -4 11 -2 17 6 16 27 -3 37 2 37 19 -1 16 -1 16 -11 0 -9 -16
-12 -16 -32 -3 -16 10 -27 11 -37 4z"/>
<path d="M190 194 c0 -8 5 -12 10 -9 6 3 10 10 10 16 0 5 -4 9 -10 9 -5 0 -10
-7 -10 -16z"/>
<path d="M1645 200 c3 -5 8 -10 11 -10 2 0 4 5 4 10 0 6 -5 10 -11 10 -5 0 -7
-4 -4 -10z"/>
<path d="M399 179 c-8 -16 -8 -24 2 -33 9 -8 10 -8 5 1 -9 16 4 44 17 36 6 -3
7 -1 3 5 -10 16 -14 15 -27 -9z"/>
<path d="M1549 187 c6 -8 8 -17 4 -20 -3 -4 -1 -7 5 -7 14 0 14 2 6 24 -3 9
-11 16 -16 16 -7 0 -6 -5 1 -13z"/>
<path d="M1620 195 c0 -5 5 -17 10 -25 5 -8 10 -10 10 -5 0 6 -5 17 -10 25 -5
8 -10 11 -10 5z"/>
<path d="M1823 190 c2 -8 9 -16 15 -16 7 -1 13 -2 15 -4 14 -11 33 -4 35 14 0
11 -2 16 -6 11 -9 -14 -45 -14 -55 0 -5 6 -7 4 -4 -5z"/>
<path d="M570 179 c0 -5 5 -7 10 -4 6 3 10 8 10 11 0 2 -4 4 -10 4 -5 0 -10
-5 -10 -11z"/>
<path d="M1522 166 c6 -14 15 -26 20 -26 10 0 -7 36 -22 45 -6 4 -5 -5 2 -19z"/>
<path d="M2038 183 c6 -3 9 -10 5 -16 -4 -7 -8 -21 -10 -32 -1 -11 1 -14 3 -8
3 7 5 15 4 19 -1 3 8 14 19 24 21 17 21 17 -6 17 -16 0 -22 -2 -15 -4z"/>
<path d="M2180 183 c0 -6 7 -16 15 -23 8 -7 12 -17 8 -23 -4 -6 -1 -7 6 -3 9
6 8 13 -6 29 -10 12 -19 24 -20 26 -2 2 -3 0 -3 -6z"/>
<path d="M2244 179 c-4 -7 -3 -9 4 -5 6 3 13 -2 15 -11 4 -16 5 -16 6 -1 1 21
-15 32 -25 17z"/>
<path d="M2316 177 c3 -10 9 -15 12 -12 3 3 0 11 -7 18 -10 9 -11 8 -5 -6z"/>
<path d="M1935 170 c3 -5 2 -10 -3 -10 -5 0 -12 -10 -15 -22 -5 -18 -8 -19
-21 -8 -14 11 -16 9 -16 -11 0 -17 3 -20 9 -10 7 11 9 11 13 0 3 -8 -2 -23
-11 -34 -16 -20 -16 -20 6 -2 12 11 19 25 17 32 -3 7 2 15 11 19 9 3 14 10 10
15 -3 5 -1 12 5 16 13 8 13 25 -1 25 -5 0 -7 -4 -4 -10z"/>
<path d="M455 161 c-3 -5 -2 -12 3 -15 5 -3 9 1 9 9 0 17 -3 19 -12 6z"/>
<path d="M530 161 c0 -7 -5 -9 -12 -5 -7 4 -10 4 -6 0 3 -4 10 -8 15 -8 4 0
15 -5 23 -11 13 -11 13 -10 0 8 -8 11 -16 22 -17 24 -2 2 -3 -1 -3 -8z"/>
<path d="M593 160 c2 -8 8 -15 13 -15 22 -1 35 -17 24 -30 -8 -9 -8 -15 0 -20
6 -3 7 -11 4 -17 -4 -7 -2 -8 4 -4 8 4 12 0 13 -11 0 -14 2 -13 10 5 5 15 13
21 21 16 8 -4 10 -3 5 2 -5 5 -17 9 -28 9 -10 0 -19 5 -18 10 1 6 5 9 9 8 5
-1 7 3 6 10 -3 23 -16 35 -34 33 -9 -2 -21 2 -25 8 -6 7 -7 6 -4 -4z"/>
<path d="M1600 163 c0 -5 10 -18 23 -29 l22 -19 -20 25 c-11 14 -21 27 -22 29
-2 2 -3 0 -3 -6z"/>
<path d="M1659 153 c-13 -16 -12 -17 4 -4 16 13 21 21 13 21 -2 0 -10 -8 -17
-17z"/>
<path d="M1951 156 c-9 -10 -8 -16 4 -26 13 -11 15 -8 15 14 0 30 -3 32 -19
12z"/>
<path d="M2067 155 c-4 -8 -2 -17 2 -20 5 -2 11 4 14 15 6 23 -8 27 -16 5z"/>
<path d="M2143 155 c-3 -9 -3 -18 -1 -21 3 -3 8 4 11 16 6 23 -1 27 -10 5z"/>
<path d="M176 149 c3 -6 13 -8 21 -5 10 4 13 2 10 -8 -4 -10 -1 -13 9 -9 23 9
11 27 -20 30 -16 1 -24 -2 -20 -8z"/>
<path d="M254 152 c3 -5 0 -13 -6 -15 -9 -4 -10 -6 -1 -6 17 -1 25 16 12 25
-7 4 -9 3 -5 -4z"/>
<path d="M286 129 c4 -29 34 -85 34 -62 0 7 -4 15 -10 18 -5 3 -10 19 -10 35
0 16 -4 31 -9 34 -4 3 -7 -8 -5 -25z"/>
<path d="M1493 145 c0 -7 6 -11 14 -8 7 3 13 6 13 8 0 2 -6 5 -13 8 -8 3 -14
-1 -14 -8z"/>
<path d="M2281 144 c0 -11 3 -14 6 -6 3 7 2 16 -1 19 -3 4 -6 -2 -5 -13z"/>
<path d="M2341 142 c0 -13 -5 -20 -11 -17 -6 4 -7 -1 -3 -11 5 -15 7 -15 15 0
5 9 7 24 5 34 -3 12 -5 10 -6 -6z"/>
<path d="M490 124 c0 -8 5 -12 10 -9 6 4 8 11 5 16 -9 14 -15 11 -15 -7z"/>
<path d="M575 118 c2 -10 -1 -21 -6 -24 -5 -3 -9 2 -9 11 0 9 -4 13 -10 10 -6
-4 -4 -15 5 -29 8 -12 12 -26 8 -29 -3 -4 -1 -7 6 -7 8 0 10 8 6 23 -6 21 -5
21 9 4 8 -11 12 -25 10 -32 -3 -7 -1 -16 5 -20 7 -4 8 0 4 11 -4 11 -3 15 5
10 6 -3 13 -2 17 4 3 5 0 10 -7 10 -7 0 -19 9 -25 19 -10 16 -9 20 5 24 15 4
15 5 0 6 -9 0 -18 7 -21 14 -2 6 -3 4 -2 -5z"/>
<path d="M1330 130 c-8 -5 -10 -10 -5 -10 6 0 17 5 25 10 8 5 11 10 5 10 -5 0
-17 -5 -25 -10z"/>
<path d="M1370 129 c0 -5 5 -7 10 -4 6 3 10 8 10 11 0 2 -4 4 -10 4 -5 0 -10
-5 -10 -11z"/>
<path d="M1443 124 c-3 -8 -1 -20 6 -27 8 -8 11 -4 9 16 -3 31 -6 34 -15 11z"/>
<path d="M1709 128 c15 -20 7 -53 -10 -42 -8 4 -9 3 -5 -5 4 -6 0 -14 -8 -17
-9 -3 -13 -11 -9 -17 4 -6 11 -4 19 7 8 11 14 13 19 6 3 -5 11 -8 16 -5 5 4 9
-2 9 -12 0 -14 2 -15 9 -4 7 11 9 11 14 0 4 -11 6 -11 6 -1 1 7 -6 15 -14 18
-8 4 -12 10 -9 15 3 5 2 9 -3 8 -19 -3 -22 3 -12 28 6 15 7 24 3 20 -4 -4 -14
-1 -23 6 -14 11 -14 10 -2 -5z"/>
<path d="M1982 109 c-9 -17 -23 -38 -30 -47 -13 -16 -13 -16 -8 1 5 17 -5 23
-17 10 -9 -8 22 -43 37 -43 6 0 4 5 -4 10 -13 8 -12 10 3 10 11 0 17 6 15 18
-2 9 2 16 9 15 7 -2 10 4 7 12 -4 9 -1 22 6 30 7 8 9 15 6 15 -4 0 -15 -14
-24 -31z"/>
<path d="M1517 110 c3 -11 9 -22 13 -25 5 -3 6 4 3 15 -3 11 -9 22 -13 25 -5
3 -6 -4 -3 -15z"/>
<path d="M1657 110 c3 -11 9 -22 13 -25 5 -3 6 4 3 15 -3 11 -9 22 -13 25 -5
3 -6 -4 -3 -15z"/>
<path d="M2090 120 c-9 -6 -10 -10 -3 -10 6 0 15 5 18 10 8 12 4 12 -15 0z"/>
<path d="M2160 119 c0 -6 -6 -9 -13 -6 -8 3 -20 1 -28 -5 -12 -8 -12 -9 1 -5
19 5 52 -11 45 -22 -3 -5 1 -11 8 -14 8 -3 14 1 14 9 0 7 -6 15 -13 18 -8 3
-11 12 -8 21 3 8 3 15 0 15 -3 0 -6 -5 -6 -11z"/>
<path d="M240 108 c1 -16 28 -53 35 -47 6 7 -18 59 -27 59 -5 0 -8 -6 -8 -12z"/>
<path d="M360 110 c1 -8 7 -24 15 -34 19 -25 19 -16 0 20 -8 16 -15 22 -15 14z"/>
<path d="M430 113 c0 -20 25 -60 49 -78 16 -12 21 -13 14 -4 -7 9 -9 19 -5 23
4 4 3 6 -3 4 -6 -2 -11 2 -13 7 -2 6 -10 14 -18 18 -8 5 -12 12 -9 17 3 5 1
11 -5 15 -5 3 -10 2 -10 -2z"/>
<path d="M746 111 c-4 -5 -1 -13 5 -17 8 -4 7 -9 -2 -16 -11 -8 -10 -9 4 -4 9
3 17 1 17 -4 0 -6 -5 -10 -12 -10 -6 0 -8 -3 -5 -6 4 -4 14 -1 22 6 15 12 15
14 0 22 -8 5 -13 13 -10 18 3 5 1 11 -4 14 -5 4 -12 2 -15 -3z"/>
<path d="M1470 110 c0 -5 5 -10 10 -10 6 0 10 5 10 10 0 6 -4 10 -10 10 -5 0
-10 -4 -10 -10z"/>
<path d="M1587 105 c-4 -8 -3 -16 1 -19 4 -3 9 4 9 15 2 23 -3 25 -10 4z"/>
<path d="M2052 103 c4 -20 -34 -61 -40 -44 -4 13 -22 15 -22 2 0 -18 30 -19
51 -2 22 18 34 61 17 61 -5 0 -8 -8 -6 -17z"/>
<path d="M2387 106 c-3 -8 -2 -18 3 -21 13 -8 20 9 11 24 -6 10 -10 9 -14 -3z"/>
<path d="M2213 95 c-7 -8 -9 -16 -4 -19 5 -3 12 1 15 10 8 22 4 25 -11 9z"/>
<path d="M494 92 c3 -6 3 -12 -1 -15 -5 -2 -3 -2 4 -1 6 2 13 -2 16 -9 2 -7 6
-7 10 -1 3 5 -3 16 -15 23 -11 7 -17 8 -14 3z"/>
<path d="M1018 77 c-3 -19 -2 -25 4 -19 6 6 8 18 6 28 -3 14 -5 12 -10 -9z"/>
<path d="M1398 83 c-8 -10 -18 -29 -21 -43 -6 -23 -5 -24 8 -7 13 18 14 18 24
0 10 -17 10 -17 11 0 0 10 -7 20 -15 24 -14 5 -14 8 1 24 9 11 15 19 12 19 -3
0 -12 -8 -20 -17z"/>
<path d="M2079 77 c-7 -15 -16 -27 -21 -27 -14 0 -9 -18 8 -24 8 -3 13 -2 9 3
-8 14 5 41 20 41 16 0 12 -35 -6 -56 -7 -9 -8 -14 -1 -14 6 0 14 9 17 21 8 24
31 20 27 -6 -2 -11 1 -14 8 -10 6 4 9 13 6 21 -3 8 -1 14 5 14 6 0 7 5 3 11
-4 8 -9 8 -13 1 -4 -6 -12 -7 -20 -3 -7 5 -11 10 -10 12 2 2 -2 13 -8 24 -11
19 -12 18 -24 -8z"/>
<path d="M2281 84 c0 -11 3 -14 6 -6 3 7 2 16 -1 19 -3 4 -6 -2 -5 -13z"/>
<path d="M881 79 c11 -6 10 -9 -4 -15 -9 -3 -17 -11 -17 -16 0 -7 5 -6 13 1
11 8 18 7 31 -7 9 -10 13 -22 9 -27 -5 -4 -2 -5 5 -1 8 5 9 13 2 26 -5 10 -7
20 -2 23 4 2 1 2 -5 1 -7 -2 -13 1 -13 5 0 5 6 11 13 14 6 2 -1 4 -17 4 -19 0
-24 -2 -15 -8z"/>
<path d="M954 82 c4 -7 2 -12 -4 -12 -7 0 -10 -6 -7 -12 2 -7 10 -13 18 -13 8
0 19 -6 25 -14 9 -11 11 -11 11 3 0 16 -9 20 -36 16 -12 -1 -13 1 -2 13 9 12
9 17 0 23 -8 4 -9 3 -5 -4z"/>
<path d="M1352 70 c-7 -11 -8 -20 -3 -20 9 0 24 30 18 36 -1 2 -8 -6 -15 -16z"/>
<path d="M1613 75 c0 -8 5 -11 10 -8 6 4 8 0 4 -10 -4 -10 -2 -14 7 -11 7 3
13 11 13 19 0 8 -3 13 -5 10 -3 -3 -10 0 -17 5 -8 7 -12 5 -12 -5z"/>
<path d="M2245 79 c-4 -6 -5 -12 -2 -15 2 -3 7 2 10 11 7 17 1 20 -8 4z"/>
<path d="M695 70 c-3 -6 1 -7 9 -4 18 7 21 14 7 14 -6 0 -13 -4 -16 -10z"/>
<path d="M845 69 c-4 -6 -5 -12 -2 -15 2 -3 7 2 10 11 7 17 1 20 -8 4z"/>
<path d="M1425 71 c-3 -5 2 -17 11 -25 19 -20 21 -20 21 -2 0 8 -5 14 -11 13
-6 -1 -10 4 -8 11 2 14 -4 16 -13 3z"/>
<path d="M1553 65 c-3 -9 -3 -18 -1 -21 3 -3 8 4 11 16 6 23 -1 27 -10 5z"/>
<path d="M1816 72 c-2 -4 -1 -14 4 -22 7 -11 9 -9 7 8 -1 24 -3 26 -11 14z"/>
<path d="M2405 70 c-3 -5 -5 -10 -3 -11 33 -8 38 -7 27 7 -14 17 -16 17 -24 4z"/>
<path d="M671 54 c0 -11 3 -14 6 -6 3 7 2 16 -1 19 -3 4 -6 -2 -5 -13z"/>
<path d="M2326 57 c3 -10 9 -15 12 -12 3 3 0 11 -7 18 -10 9 -11 8 -5 -6z"/>
<path d="M792 43 c2 -10 12 -18 23 -18 11 0 23 -6 27 -15 6 -11 7 -10 5 5 -2
14 -9 20 -25 19 -24 -1 -30 11 -9 19 7 3 4 6 -6 6 -12 1 -17 -5 -15 -16z"/>
<path d="M1841 43 c0 -11 3 -13 6 -5 2 6 9 10 14 6 5 -3 9 0 9 5 0 6 -7 11
-15 11 -8 0 -15 -8 -14 -17z"/>
<path d="M255 40 c3 -5 8 -10 11 -10 2 0 4 5 4 10 0 6 -5 10 -11 10 -5 0 -7
-4 -4 -10z"/>
<path d="M333 30 c-2 -24 13 -35 20 -16 3 8 0 19 -7 25 -8 7 -12 5 -13 -9z"/>
<path d="M369 36 c13 -15 13 -19 0 -27 -12 -7 -11 -9 2 -9 27 0 31 28 6 41
-20 11 -21 11 -8 -5z"/>
<path d="M400 43 c0 -16 28 -48 36 -40 4 4 2 7 -5 7 -7 0 -10 4 -7 9 3 5 -1
14 -9 21 -8 7 -15 8 -15 3z"/>
<path d="M529 48 c-6 -20 -6 -39 0 -42 4 -3 7 6 7 20 0 20 -4 32 -7 22z"/>
<path d="M710 45 c0 -5 5 -17 10 -25 9 -13 10 -13 10 0 0 13 1 13 11 0 7 -10
9 -11 7 -2 -2 8 -7 13 -12 12 -5 -1 -13 4 -17 12 -5 7 -9 9 -9 3z"/>
<path d="M1026 41 c-4 -5 -2 -12 4 -16 6 -4 8 -11 5 -16 -3 -5 1 -6 10 -3 13
5 13 9 3 23 -7 9 -13 17 -14 19 -1 2 -5 -1 -8 -7z"/>
<path d="M453 20 c-1 -11 2 -20 7 -20 4 0 7 7 6 15 -3 23 -12 26 -13 5z"/>
<path d="M656 27 c3 -10 9 -15 12 -12 3 3 0 11 -7 18 -10 9 -11 8 -5 -6z"/>
<path d="M1335 30 c3 -5 8 -10 11 -10 2 0 4 5 4 10 0 6 -5 10 -11 10 -5 0 -7
-4 -4 -10z"/>
<path d="M1906 24 c-4 -9 -4 -19 -1 -22 3 -3 5 0 5 7 0 7 5 9 10 6 6 -3 10 -2
10 4 0 18 -18 21 -24 5z"/>
<path d="M2020 26 c0 -23 16 -27 17 -5 1 10 -2 19 -8 19 -5 0 -9 -6 -9 -14z"/>
<path d="M2355 30 c-3 -6 2 -13 12 -17 10 -3 22 -8 27 -11 5 -3 6 0 2 6 -4 7
-14 12 -22 12 -8 0 -12 5 -9 10 3 6 4 10 1 10 -3 0 -8 -5 -11 -10z"/>
<path d="M2435 29 c-10 -15 3 -25 16 -12 7 7 7 13 1 17 -6 3 -14 1 -17 -5z"/>
<path d="M305 20 c-3 -5 -1 -10 4 -10 6 0 11 5 11 10 0 6 -2 10 -4 10 -3 0 -8
-4 -11 -10z"/>
<path d="M1480 20 c0 -5 5 -10 11 -10 5 0 7 5 4 10 -3 6 -8 10 -11 10 -2 0 -4
-4 -4 -10z"/>
<path d="M1626 17 c3 -10 9 -15 12 -12 3 3 0 11 -7 18 -10 9 -11 8 -5 -6z"/>
<path d="M1700 21 c0 -6 4 -13 10 -16 6 -3 7 1 4 9 -7 18 -14 21 -14 7z"/>
<path d="M2325 21 c-3 -5 -1 -12 5 -16 5 -3 10 1 10 9 0 18 -6 21 -15 7z"/>
<path d="M2411 14 c0 -11 3 -14 6 -6 3 7 2 16 -1 19 -3 4 -6 -2 -5 -13z"/>
<path d="M955 10 c3 -5 8 -10 11 -10 2 0 4 5 4 10 0 6 -5 10 -11 10 -5 0 -7
-4 -4 -10z"/>
<path d="M1445 10 c-3 -6 1 -7 9 -4 18 7 21 14 7 14 -6 0 -13 -4 -16 -10z"/>
<path d="M1510 9 c0 -5 5 -7 10 -4 6 3 10 8 10 11 0 2 -4 4 -10 4 -5 0 -10 -5
-10 -11z"/>
<path d="M1826 8 c3 -5 10 -6 15 -3 13 9 11 12 -6 12 -8 0 -12 -4 -9 -9z"/>
<path d="M1940 10 c0 -5 5 -10 11 -10 5 0 7 5 4 10 -3 6 -8 10 -11 10 -2 0 -4
-4 -4 -10z"/>
</g>
</svg>
